<svg width="109" height="28" viewBox="0 0 109 28" fill="none" xmlns="http://www.w3.org/2000/svg">
<g clip-path="url(#clip0_373_15294)">
<path d="M34.7451 20.831C32.7462 20.831 31.0805 20.1621 29.7479 18.8244C28.4153 17.4867 27.749 15.8311 27.749 13.8598C27.749 11.8886 28.4153 10.2329 29.7479 8.89523C31.0805 7.55753 32.7462 6.88867 34.7451 6.88867C36.0425 6.88867 37.2226 7.19719 38.283 7.81423C39.3435 8.43127 40.1646 9.25792 40.7417 10.2965L37.0068 12.4609C36.5328 11.5989 35.7704 11.1679 34.7193 11.1679C33.9826 11.1679 33.3679 11.4176 32.8776 11.9216C32.3873 12.4232 32.1409 13.0709 32.1409 13.8622C32.1409 14.6535 32.3873 15.3012 32.8776 15.8028C33.3679 16.3044 33.9826 16.5564 34.7193 16.5564C35.8055 16.5564 36.5704 16.116 37.0068 15.2352L40.7417 17.3996C40.1623 18.457 39.3435 19.2931 38.283 19.9078C37.2226 20.5248 36.0425 20.8333 34.7451 20.8333" fill="#7957FF"/>
<path d="M51.1597 7.2586H55.5258V20.4614H51.1597V19.2461C50.2658 20.3012 49.02 20.8311 47.4247 20.8311C45.6721 20.8311 44.2035 20.167 43.0187 18.8387C41.8362 17.5104 41.2427 15.8501 41.2427 13.8623C41.2427 11.8746 41.8339 10.2143 43.0187 8.88598C44.2035 7.5577 45.6698 6.89355 47.4247 6.89355C49.02 6.89355 50.2658 7.4211 51.1597 8.47855V7.26331V7.2586ZM46.3994 15.9466C46.9085 16.4742 47.5748 16.7379 48.3983 16.7379C49.2218 16.7379 49.8881 16.4742 50.3972 15.9466C50.9063 15.4191 51.1597 14.722 51.1597 13.86C51.1597 12.998 50.9063 12.3033 50.3972 11.7734C49.8881 11.2458 49.2218 10.982 48.3983 10.982C47.5748 10.982 46.9085 11.2458 46.3994 11.7734C45.8903 12.3009 45.6369 12.998 45.6369 13.86C45.6369 14.722 45.8903 15.4167 46.3994 15.9466Z" fill="#7957FF"/>
<path d="M62.418 9.71479C62.6643 8.85282 63.1546 8.18396 63.8913 7.70823C64.628 7.2325 65.4515 6.99463 66.3641 6.99463V11.8532C65.3647 11.6954 64.4567 11.8791 63.6426 12.4067C62.8262 12.9342 62.4203 13.7986 62.4203 14.995V20.4612H58.0542V7.2584H62.4203V9.71479H62.418Z" fill="#7957FF"/>
<path d="M77.0951 7.25834H81.4096V19.9312C81.4096 20.9887 81.2125 21.9237 80.8184 22.7432C80.4243 23.5628 79.894 24.2128 79.2277 24.698C78.5614 25.1808 77.8295 25.5435 77.0318 25.7813C76.2341 26.0192 75.3872 26.137 74.4933 26.137C73.0387 26.137 71.7413 25.8638 70.6011 25.3174C69.4609 24.771 68.6022 23.9703 68.0227 22.9152L71.6522 20.8026C72.2833 21.8059 73.2123 22.3075 74.4417 22.3075C75.23 22.3075 75.8705 22.105 76.3608 21.6999C76.8511 21.2948 77.0975 20.7061 77.0975 19.9312V18.6642C76.2036 19.757 74.9766 20.301 73.4141 20.301C71.6076 20.301 70.1131 19.6486 68.9283 18.3462C67.7436 17.0439 67.1523 15.4589 67.1523 13.5936C67.1523 11.7284 67.7436 10.1434 68.9283 8.84098C70.1131 7.5386 71.6076 6.88623 73.4141 6.88623C74.9743 6.88623 76.2036 7.43262 77.0975 8.52304V7.25598L77.0951 7.25834ZM72.295 15.5625C72.8111 16.083 73.4821 16.342 74.308 16.342C75.1338 16.342 75.8024 16.083 76.3209 15.5625C76.8371 15.0444 77.0975 14.3873 77.0975 13.596C77.0975 12.8046 76.8394 12.1476 76.3209 11.6294C75.8024 11.1113 75.1314 10.8499 74.308 10.8499C73.4845 10.8499 72.8135 11.109 72.295 11.6294C71.7765 12.1476 71.5184 12.8046 71.5184 13.596C71.5184 14.3873 71.7765 15.0444 72.295 15.5625Z" fill="#7957FF"/>
<path d="M90.2986 20.831C88.3514 20.831 86.695 20.1574 85.3273 18.8103C83.9595 17.4632 83.2744 15.8146 83.2744 13.8598C83.2744 11.9051 83.9571 10.2565 85.3273 8.90936C86.695 7.56224 88.3514 6.88867 90.2986 6.88867C92.2459 6.88867 93.9234 7.56224 95.2818 8.90936C96.6402 10.2565 97.3205 11.9074 97.3205 13.8598C97.3205 15.8122 96.6402 17.4632 95.2818 18.8103C93.9234 20.1574 92.2623 20.831 90.2986 20.831ZM90.2986 16.6059C91.0705 16.6059 91.7063 16.3515 92.206 15.8405C92.7057 15.3294 92.9568 14.67 92.9568 13.8598C92.9568 13.0497 92.7057 12.3902 92.206 11.8792C91.7063 11.3681 91.0705 11.1138 90.2986 11.1138C89.5268 11.1138 88.9168 11.3681 88.4171 11.8792C87.9173 12.3902 87.6687 13.0497 87.6687 13.8598C87.6687 14.67 87.9173 15.3294 88.4171 15.8405C88.9168 16.3515 89.5432 16.6059 90.2986 16.6059Z" fill="#7957FF"/>
<path d="M104.083 16.3938H109V20.4611H98.2432V17.4513L102.898 11.3256H98.5059V7.2583H108.74V10.2681L104.083 16.3938Z" fill="#7957FF"/>
<path d="M23.4721 22.0698L14.7047 27.1498C14.5053 27.2581 14.2777 27.3217 14.0314 27.3217C13.2501 27.3217 12.6167 26.6858 12.6167 25.9016V16.3327C12.6167 15.6945 12.7598 15.0727 13.0226 14.5122C13.5833 14.5687 14.1346 14.7454 14.639 15.0374L23.4698 20.1551C24.2041 20.579 24.2041 21.6435 23.4698 22.0698" fill="#40BCAA"/>
<path d="M23.0037 7.84813L14.7478 12.6337C13.9829 13.0765 13.3894 13.7383 13.0257 14.5155C12.763 15.076 12.6199 15.6954 12.6199 16.336V25.9048C12.6199 26.6891 13.2533 27.325 14.0346 27.325C14.2785 27.325 14.5085 27.2614 14.7079 27.153L13.7976 27.6829C13.0703 28.1045 12.1741 28.1092 11.4445 27.6947L10.5131 27.1648L2.06473 22.3674C1.93804 22.2944 1.8137 22.2167 1.69874 22.1319C1.69405 22.1319 1.6917 22.1272 1.68701 22.1225C0.626569 21.3547 -0.0115715 20.1089 0.000158974 18.7759L0.0940031 8.94797C0.10808 7.50193 0.879948 6.17364 2.12808 5.45062L10.5858 0.547264C11.8433 -0.180468 13.3941 -0.180468 14.6539 0.547264L23.0014 5.38703C23.9445 5.93577 23.9445 7.30174 23.0014 7.84813" fill="#7957FF"/>
</g>
<defs>
<clipPath id="clip0_373_15294">
<rect width="109" height="28" fill="white"/>
</clipPath>
</defs>
</svg>
